<svg width="26" height="26" viewBox="0 0 48 48" fill="none" xmlns="http://www.w3.org/2000/svg">
    <path fill-rule="evenodd" clip-rule="evenodd" d="M40 8H8V40H40V8ZM6 6V42H42V6H6Z" fill="currentColor" stroke-width='1'/>
    <path fill-rule="evenodd" clip-rule="evenodd" d="M24 14C20.134 14 17 17.134 17 21C17 24.866 20.134 28 24 28C27.866 28 31 24.866 31 21C31 17.134 27.866 14 24 14ZM15 21C15 16.0294 19.0294 12 24 12C28.9706 12 33 16.0294 33 21C33 25.9706 28.9706 30 24 30C19.0294 30 15 25.9706 15 21Z" fill="currentColor" stroke-width='1'/>
    <path fill-rule="evenodd" clip-rule="evenodd" d="M16.729 29.4463C19.0342 28.4914 21.5049 28 24 28C26.4951 28 28.9658 28.4914 31.271 29.4463C33.5762 30.4011 35.6707 31.8007 37.435 33.565C39.1993 35.3293 40.5989 37.4238 41.5537 39.729L39.706 40.4944C38.8516 38.4318 37.5994 36.5578 36.0208 34.9792C34.4422 33.4006 32.5682 32.1484 30.5056 31.294C28.4431 30.4397 26.2325 30 24 30C21.7675 30 19.5569 30.4397 17.4944 31.294C15.4318 32.1484 13.5578 33.4006 11.9792 34.9792C10.4006 36.5578 9.14838 38.4318 8.29405 40.4944L6.44629 39.729C7.40113 37.4238 8.80066 35.3293 10.565 33.565C12.3293 31.8007 14.4238 30.4011 16.729 29.4463Z" fill="currentColor" stroke-width='1'/>
    </svg>
    