<svg width="26" height="26" viewBox="0 0 48 48" fill="none" xmlns="http://www.w3.org/2000/svg">
    <path fill-rule="evenodd" clip-rule="evenodd" d="M23.5406 4.61178C23.8287 4.46274 24.1713 4.46274 24.4594 4.61178L38.9594 12.1118C39.2915 12.2835 39.5 12.6262 39.5 13V27.5C39.5 27.618 39.4791 27.735 39.4383 27.8457L39.1839 28.5365C37.0078 34.4428 32.763 39.3593 27.2371 42.3734L24.4789 43.8779C24.1804 44.0407 23.8196 44.0407 23.5211 43.8779L20.7629 42.3734C15.237 39.3593 10.9922 34.4428 8.81614 28.5365L8.56166 27.8457C8.52087 27.735 8.5 27.618 8.5 27.5V13C8.5 12.6262 8.70852 12.2835 9.04058 12.1118L23.5406 4.61178ZM10.5 13.6086V27.3216L10.6928 27.845C12.7015 33.2971 16.6198 37.8353 21.7206 40.6176L24 41.8609L26.2794 40.6176C31.3802 37.8353 35.2985 33.2971 37.3072 27.845L37.5 27.3216V13.6086L24 6.62585L10.5 13.6086Z" fill="currentColor" stroke-width='1'/>
    <path fill-rule="evenodd" clip-rule="evenodd" d="M24 15C21.7909 15 20 16.7909 20 19C20 21.2091 21.7909 23 24 23C26.2091 23 28 21.2091 28 19C28 16.7909 26.2091 15 24 15ZM18 19C18 15.6863 20.6863 13 24 13C27.3137 13 30 15.6863 30 19C30 22.3137 27.3137 25 24 25C20.6863 25 18 22.3137 18 19Z" fill="currentColor" stroke-width='1'/>
    <path fill-rule="evenodd" clip-rule="evenodd" d="M20.1732 24.7612C21.3864 24.2587 22.6868 24 24 24C25.3132 24 26.6136 24.2587 27.8268 24.7612C29.0401 25.2638 30.1425 26.0003 31.0711 26.9289C31.9997 27.8575 32.7362 28.9599 33.2388 30.1732C33.7413 31.3864 34 32.6868 34 34C34 34.5523 33.5523 35 33 35L15 35C14.4477 35 14 34.5523 14 34C14 32.6868 14.2587 31.3864 14.7612 30.1732C15.2638 28.9599 16.0003 27.8575 16.9289 26.9289C17.8575 26.0003 18.9599 25.2638 20.1732 24.7612ZM24 26C22.9494 26 21.9091 26.2069 20.9385 26.609C19.9679 27.011 19.086 27.6003 18.3431 28.3431C17.6003 29.086 17.011 29.9679 16.609 30.9385C16.3351 31.5996 16.1518 32.293 16.0627 33L31.9373 33C31.8482 32.293 31.6649 31.5996 31.391 30.9385C30.989 29.9679 30.3997 29.086 29.6569 28.3431C28.914 27.6003 28.0321 27.011 27.0615 26.609C26.0909 26.2069 25.0506 26 24 26Z" fill="currentColor" stroke-width='1'/>
    </svg>
    