<svg width="26" height="26" viewBox="0 0 48 48" fill="none" xmlns="http://www.w3.org/2000/svg">
    <path fill-rule="evenodd" clip-rule="evenodd"
        d="M24 6C14.0589 6 6 14.0589 6 24C6 33.9411 14.0589 42 24 42C33.9411 42 42 33.9411 42 24C42 14.0589 33.9411 6 24 6ZM4 24C4 12.9543 12.9543 4 24 4C35.0457 4 44 12.9543 44 24C44 35.0457 35.0457 44 24 44C12.9543 44 4 35.0457 4 24Z"
        fill="currentColor" stroke-width='1' />
    <path d="M10 22H38V24H10V22Z" fill="white" />
    <path fill-rule="evenodd" clip-rule="evenodd"
        d="M17 28C15.3431 28 14 29.3431 14 31C14 32.6569 15.3431 34 17 34C18.6569 34 20 32.6569 20 31C20 29.3431 18.6569 28 17 28ZM12 31C12 28.2386 14.2386 26 17 26C19.7614 26 22 28.2386 22 31C22 33.7614 19.7614 36 17 36C14.2386 36 12 33.7614 12 31Z"
        fill="currentColor" stroke-width='1' />
    <path fill-rule="evenodd" clip-rule="evenodd"
        d="M22.4693 27.3045C22.9546 27.1035 23.4747 27 24 27C24.5253 27 25.0454 27.1035 25.5307 27.3045C26.016 27.5055 26.457 27.8001 26.8284 28.1716C27.1999 28.543 27.4945 28.984 27.6955 29.4693C27.8965 29.9546 28 30.4747 28 31H26C26 30.7374 25.9483 30.4773 25.8478 30.2346C25.7472 29.992 25.5999 29.7715 25.4142 29.5858C25.2285 29.4001 25.008 29.2528 24.7654 29.1522C24.5227 29.0517 24.2626 29 24 29C23.7374 29 23.4773 29.0517 23.2346 29.1522C22.992 29.2528 22.7715 29.4001 22.5858 29.5858C22.4001 29.7715 22.2528 29.992 22.1522 30.2346C22.0517 30.4773 22 30.7374 22 31H20C20 30.4747 20.1035 29.9546 20.3045 29.4693C20.5055 28.984 20.8001 28.543 21.1716 28.1716C21.543 27.8001 21.984 27.5055 22.4693 27.3045Z"
        fill="currentColor" stroke-width='1' />
    <path fill-rule="evenodd" clip-rule="evenodd"
        d="M31 28C29.3431 28 28 29.3431 28 31C28 32.6569 29.3431 34 31 34C32.6569 34 34 32.6569 34 31C34 29.3431 32.6569 28 31 28ZM26 31C26 28.2386 28.2386 26 31 26C33.7614 26 36 28.2386 36 31C36 33.7614 33.7614 36 31 36C28.2386 36 26 33.7614 26 31Z"
        fill="currentColor" stroke-width='1' />
    <path
        d="M32.5 20.5H15.5L19.0777 10.6613C19.3312 9.96412 19.9939 9.5 20.7357 9.5H21.7857C22.1802 9.5 22.5 9.8198 22.5 10.2143V10.5C22.5 11.3284 23.1716 12 24 12C24.8284 12 25.5 11.3284 25.5 10.5V10.2143C25.5 9.8198 25.8198 9.5 26.2143 9.5H27.2643C28.0061 9.5 28.6688 9.96412 28.9223 10.6613L32.5 20.5Z"
        fill="currentColor" stroke-width='1' />
</svg>
    