<svg width="96" height="29" viewBox="0 0 86 20" fill="none" xmlns="http://www.w3.org/2000/svg">
    <path d="M26.4354 3.12324C26.1243 1.89323 25.2107 0.926623 24.0483 0.597366C21.9436 1.78814e-07 13.5 0 13.5 0C13.5 0 5.05638 1.78814e-07 2.95159 0.597366C1.78919 0.926623 0.875699 1.89323 0.564537 3.12324C1.78814e-07 5.35042 0 10 0 10C0 10 1.78814e-07 14.6496 0.564537 16.8768C0.875699 18.1068 1.78919 19.0734 2.95159 19.4026C5.05638 20 13.5 20 13.5 20C13.5 20 21.9436 20 24.0483 19.4026C25.2107 19.0734 26.1243 18.1068 26.4354 16.8768C27 14.6496 27 10 27 10C27 10 26.9977 5.35042 26.4354 3.12324Z" fill="#FF0000"/>
    <path d="M10.9175 14.2854L18.01 10.0004L10.9175 5.71533V14.2854Z" fill="white"/>
    <path d="M33.0645 13.0038L29.9991 1.4187H32.6735L33.7477 6.67034C34.0218 7.96385 34.2218 9.06686 34.3522 9.97937H34.4308C34.5207 9.32556 34.723 8.22961 35.0354 6.68916L36.1478 1.4187H38.8221L35.7185 13.0038V18.5612H33.0623V13.0038H33.0645Z" fill="currentColor" stroke-width='1'/>
    <path d="M39.6265 18.1939C39.0872 17.8129 38.7029 17.2202 38.4736 16.4159C38.2467 15.6116 38.1321 14.5439 38.1321 13.208V11.39C38.1321 10.0424 38.2624 8.95829 38.5231 8.1422C38.7838 7.32612 39.1906 6.72875 39.7434 6.35481C40.2963 5.98087 41.0221 5.79272 41.9211 5.79272C42.8065 5.79272 43.5144 5.98322 44.0492 6.36422C44.5818 6.74521 44.9728 7.34258 45.22 8.15161C45.4672 8.96299 45.5909 10.0424 45.5909 11.39V13.208C45.5909 14.5439 45.4695 15.6163 45.2291 16.4253C44.9886 17.2367 44.5976 17.8294 44.0582 18.2033C43.5189 18.5773 42.7862 18.7654 41.8626 18.7654C40.9097 18.7677 40.1659 18.5749 39.6265 18.1939ZM42.6514 16.2325C42.7997 15.8233 42.8762 15.1577 42.8762 14.2311V10.3294C42.8762 9.43101 42.802 8.77249 42.6514 8.35857C42.5008 7.9423 42.2379 7.73534 41.8603 7.73534C41.4963 7.73534 41.2379 7.9423 41.0896 8.35857C40.939 8.77485 40.8648 9.43101 40.8648 10.3294V14.2311C40.8648 15.1577 40.9367 15.8256 41.0806 16.2325C41.2244 16.6417 41.4828 16.8463 41.8603 16.8463C42.2379 16.8463 42.5008 16.6417 42.6514 16.2325Z" fill="currentColor" stroke-width='1'/>
    <path d="M54.2902 18.5636H52.1823L51.9485 17.0302H51.8902C51.317 18.1873 50.4585 18.7658 49.3125 18.7658C48.5192 18.7658 47.9326 18.493 47.5551 17.9498C47.1776 17.4041 46.9887 16.5528 46.9887 15.3957V6.03775H49.6833V15.231C49.6833 15.7908 49.7417 16.1882 49.8586 16.4258C49.9754 16.6633 50.1709 16.7832 50.4451 16.7832C50.6788 16.7832 50.9036 16.708 51.1193 16.5575C51.3351 16.4069 51.4924 16.2164 51.598 15.986V6.0354H54.2902V18.5636Z" fill="currentColor" stroke-width='1'/>
    <path d="M61.6098 3.68782H58.9355V18.5631H56.2994V3.68782H53.6251V1.42065H61.6098V3.68782Z" fill="currentColor" stroke-width='1'/>
    <path d="M68.1089 18.5636H66.001L65.7672 17.0302H65.7089C65.1358 18.1873 64.2773 18.7658 63.1312 18.7658C62.3378 18.7658 61.7513 18.493 61.3738 17.9498C60.9963 17.4041 60.8074 16.5528 60.8074 15.3957V6.03775H63.502V15.231C63.502 15.7908 63.5604 16.1882 63.6773 16.4258C63.7941 16.6633 63.9896 16.7832 64.2639 16.7832C64.4975 16.7832 64.7222 16.708 64.938 16.5575C65.1538 16.4069 65.3111 16.2164 65.4166 15.986V6.0354H68.1089V18.5636Z" fill="currentColor" stroke-width='1'/>
    <path d="M77.0263 8.03894C76.8622 7.24873 76.5993 6.67723 76.2353 6.3221C75.8712 5.96698 75.37 5.79059 74.7318 5.79059C74.2374 5.79059 73.7745 5.9364 73.3452 6.23038C72.916 6.52436 72.5834 6.90771 72.3496 7.38513H72.3295V0.785889H69.7338V18.561H71.9586L72.2328 17.3757H72.2912C72.5002 17.799 72.8126 18.1306 73.2284 18.3776C73.6441 18.6222 74.1071 18.7445 74.615 18.7445C75.5251 18.7445 76.1971 18.3047 76.6263 17.4274C77.0555 16.5478 77.2712 15.1767 77.2712 13.3094V11.3268C77.2712 9.92746 77.1881 8.82916 77.0263 8.03894ZM74.5565 13.1494C74.5565 14.0619 74.5206 14.7769 74.4486 15.2943C74.3767 15.8117 74.2576 16.181 74.0868 16.3973C73.9183 16.616 73.689 16.7242 73.4036 16.7242C73.1812 16.7242 72.9767 16.6701 72.7878 16.5596C72.5991 16.4514 72.4463 16.2868 72.3295 16.0704V8.96086C72.4193 8.61984 72.5767 8.34233 72.7991 8.12361C73.0194 7.90489 73.2621 7.7967 73.5205 7.7967C73.7947 7.7967 74.0059 7.90959 74.1543 8.13302C74.3048 8.35879 74.4082 8.73509 74.4667 9.2666C74.525 9.79811 74.5543 10.553 74.5543 11.5337V13.1494H74.5565Z" fill="currentColor" stroke-width='1'/>
    <path d="M81.0938 13.8714C81.0938 14.6757 81.1163 15.2778 81.1613 15.68C81.2062 16.0821 81.3006 16.3738 81.4444 16.5596C81.5882 16.743 81.8085 16.8347 82.1074 16.8347C82.5097 16.8347 82.7883 16.6701 82.9366 16.3432C83.0872 16.0163 83.1681 15.4707 83.1816 14.7087L85.5053 14.8521C85.5188 14.9603 85.5255 15.1108 85.5255 15.3013C85.5255 16.4584 85.2221 17.3239 84.6176 17.8954C84.0131 18.4669 83.1569 18.7538 82.0512 18.7538C80.7231 18.7538 79.7926 18.3187 79.26 17.4462C78.7252 16.5737 78.46 15.2261 78.46 13.401V11.2138C78.46 9.33477 78.7365 7.9613 79.2893 7.09583C79.8421 6.23035 80.7882 5.79761 82.1298 5.79761C83.0535 5.79761 83.7636 5.974 84.258 6.32913C84.7525 6.68425 85.1008 7.23458 85.303 7.98482C85.5053 8.73505 85.6064 9.76986 85.6064 11.0915V13.2364H81.0938V13.8714ZM81.4354 7.96836C81.2983 8.14474 81.2085 8.43402 81.1613 8.83618C81.1163 9.23835 81.0938 9.84747 81.0938 10.6659V11.5643H83.0647V10.6659C83.0647 9.86158 83.0378 9.25246 82.9861 8.83618C82.9344 8.41991 82.84 8.12828 82.7029 7.9566C82.5659 7.78727 82.3546 7.70025 82.0692 7.70025C81.7815 7.7026 81.5703 7.79197 81.4354 7.96836Z" fill="currentColor" stroke-width='1'/>
    </svg>
    