<svg width="24" height="24" viewBox="0 0 24 24" fill="none" xmlns="http://www.w3.org/2000/svg">
    <rect x="1" y="1" width="22" height="22" rx="11" fill="#EA3323"/>
    <path d="M15.3335 12L10.3335 14.8868L10.3335 9.11328L15.3335 12Z" fill="currentColor" stroke-width='1'/>
    <path fill-rule="evenodd" clip-rule="evenodd" d="M12 17.3333C14.9455 17.3333 17.3333 14.9455 17.3333 12C17.3333 9.05448 14.9455 6.66667 12 6.66667C9.05448 6.66667 6.66667 9.05448 6.66667 12C6.66667 14.9455 9.05448 17.3333 12 17.3333ZM12 18C15.3137 18 18 15.3137 18 12C18 8.68629 15.3137 6 12 6C8.68629 6 6 8.68629 6 12C6 15.3137 8.68629 18 12 18Z" fill="currentColor" stroke-width='1'/>
    </svg>
    