<svg width="26" height="26" viewBox="0 0 48 48" fill="none" xmlns="http://www.w3.org/2000/svg">
    <path fill-rule="evenodd" clip-rule="evenodd" d="M5.10961 15.9024C5.57047 12.857 8.25199 11 11.158 11H36.3153C39.5141 11 42.3728 13.1923 42.8499 16.4566C43.1895 18.7807 43.5 21.7831 43.5 25C43.5 28.2169 43.1895 31.2193 42.8499 33.5434C42.3728 36.8077 39.5141 39 36.3153 39H11.158C8.25199 39 5.57047 37.143 5.10961 34.0976C4.78365 31.9436 4.5 28.9378 4.5 25C4.5 21.0622 4.78365 18.0564 5.10961 15.9024ZM11.158 13C9.06188 13 7.37467 14.3013 7.08709 16.2017C6.77669 18.2528 6.5 21.1585 6.5 25C6.5 28.8415 6.77669 31.7472 7.08709 33.7983C7.37467 35.6987 9.06188 37 11.158 37H36.3153C38.623 37 40.5517 35.4386 40.8709 33.2542C41.2009 30.9962 41.5 28.0941 41.5 25C41.5 21.9059 41.2009 19.0038 40.8709 16.7458C40.5517 14.5614 38.623 13 36.3153 13H11.158Z" fill="currentColor" stroke-width='1'/>
    <path d="M31 24.9999L20.5 31.0621L20.5 18.9377L31 24.9999Z" fill="currentColor" stroke-width='1'/>
    </svg>
    