<svg width="34" height="34" viewBox="0 0 48 48" fill="none" xmlns="http://www.w3.org/2000/svg">
    <path d="M35.2583 13.3054C34.864 12.6983 33.9753 12.6983 33.581 13.3054L25.0307 26.4695C24.5986 27.1348 25.076 28.0142 25.8693 28.0142H29.3845C29.4079 28.3445 29.4197 28.678 29.4197 29.0142C29.4197 34.091 26.7174 38.5367 22.6728 40.9913C22.2619 41.2407 22.3547 41.881 22.8327 41.9313C23.3542 41.9861 23.8837 42.0142 24.4197 42.0142C32.368 42.0142 38.8723 35.8323 39.3869 28.0142H42.97C43.7633 28.0142 44.2408 27.1348 43.8087 26.4695L35.2583 13.3054Z"  fill="white"  />
    <path d="M12.7134 34.7088C13.1077 35.3159 13.9963 35.3159 14.3906 34.7088L22.941 21.5447C23.3731 20.8794 22.8957 20 22.1024 20H18.5871C18.5638 19.6697 18.552 19.3362 18.552 19C18.552 13.9232 21.2542 9.47755 25.2989 7.02294C25.7097 6.77358 25.617 6.13323 25.139 6.08296C24.6175 6.02812 24.088 6 23.552 6C15.6037 6 9.09935 12.182 8.58476 20L5.00165 20C4.20836 20 3.73091 20.8794 4.16302 21.5447L12.7134 34.7088Z"  fill="white"  />
    </svg>
    