<svg width="26" height="26" viewBox="0 0 48 48" fill="none" xmlns="http://www.w3.org/2000/svg">
    <path fill-rule="evenodd" clip-rule="evenodd" d="M22 9C14.8203 9 9 14.8203 9 22C9 29.1797 14.8203 35 22 35C29.1797 35 35 29.1797 35 22C35 14.8203 29.1797 9 22 9ZM5 22C5 12.6112 12.6112 5 22 5C31.3888 5 39 12.6112 39 22C39 31.3888 31.3888 39 22 39C12.6112 39 5 31.3888 5 22Z" fill="currentColor" stroke-width="1"/>
    <path fill-rule="evenodd" clip-rule="evenodd" d="M39.5858 42.4141L30.5858 33.4141L33.4142 30.5857L42.4142 39.5857C43.1953 40.3667 43.1953 41.6331 42.4142 42.4141C41.6332 43.1952 40.3668 43.1952 39.5858 42.4141Z" fill="currentColor" stroke-width="1"/>
    </svg>
    