<svg width="24" height="24" viewBox="0 0 48 48" fill="none" xmlns="http://www.w3.org/2000/svg">
    <path fill-rule="evenodd" clip-rule="evenodd" d="M24 11C18.4772 11 14 15.4772 14 21V31.4142L10 35.4142V36H38V35.4142L34 31.4142V21C34 15.4772 29.5228 11 24 11ZM12 21C12 14.3726 17.3726 9 24 9C30.6274 9 36 14.3726 36 21V30.5858L40 34.5858V38H8V34.5858L12 30.5858V21Z" fill="white"/>
    <path d="M20 8C20 5.79086 21.7909 4 24 4C26.2091 4 28 5.79086 28 8V10H20V8Z" fill="white"/>
    <path d="M28 40C28 40.5253 27.8965 41.0454 27.6955 41.5307C27.4945 42.016 27.1999 42.457 26.8284 42.8284C26.457 43.1999 26.016 43.4945 25.5307 43.6955C25.0454 43.8965 24.5253 44 24 44C23.4747 44 22.9546 43.8965 22.4693 43.6955C21.984 43.4945 21.543 43.1999 21.1716 42.8284C20.8001 42.457 20.5055 42.016 20.3045 41.5307C20.1035 41.0454 20 40.5253 20 40L24 40H28Z" fill="white"/>
    </svg>
    