<svg width="24" height="24" viewBox="0 0 48 48" fill="none" xmlns="http://www.w3.org/2000/svg">
    <path fill-rule="evenodd" clip-rule="evenodd" d="M4 8H44V40H28V38H42V10H6V16H4V8Z" fill="white"/>
    <path fill-rule="evenodd" clip-rule="evenodd" d="M4 20C6.62644 20 9.22716 20.5173 11.6537 21.5224C14.0802 22.5275 16.285 24.0007 18.1421 25.8579C19.9993 27.715 21.4725 29.9198 22.4776 32.3463C23.4827 34.7728 24 37.3736 24 40H20C20 37.8988 19.5861 35.8183 18.7821 33.8771C17.978 31.9359 16.7994 30.172 15.3137 28.6863C13.828 27.2006 12.0641 26.022 10.1229 25.2179C8.18172 24.4139 6.10115 24 4 24V20Z" fill="white"/>
    <path fill-rule="evenodd" clip-rule="evenodd" d="M4 27C5.70718 27 7.39765 27.3363 8.97488 27.9896C10.5521 28.6429 11.9852 29.6005 13.1924 30.8076C14.3996 32.0148 15.3571 33.4479 16.0104 35.0251C16.6637 36.6023 17 38.2928 17 40H13C13 38.8181 12.7672 37.6478 12.3149 36.5558C11.8626 35.4639 11.1997 34.4718 10.364 33.636C9.52824 32.8003 8.53608 32.1374 7.44415 31.6851C6.35222 31.2328 5.1819 31 4 31L4 27Z" fill="white"/>
    <path d="M10 40C10 39.2121 9.84481 38.4319 9.54328 37.7039C9.24175 36.9759 8.79979 36.3145 8.24264 35.7574C7.68549 35.2002 7.02405 34.7583 6.2961 34.4567C5.56815 34.1552 4.78793 34 4 34L4 40H10Z" fill="white"/>
    </svg>
    