<svg width="48" height="48" viewBox="0 0 48 48" fill="none" xmlns="http://www.w3.org/2000/svg">
    <g clip-path="url(#clip0_120_738)">
    <path fill-rule="evenodd" clip-rule="evenodd" d="M42.9147 9.76773C42.7599 9.39405 42.3953 9.15041 41.9908 9.15041L33.5055 9.15041C33.2403 9.15041 32.9859 9.25577 32.7984 9.4433L25.0202 17.2215C24.6297 17.612 24.6297 18.2452 25.0202 18.6357L29.2629 22.8783C29.6534 23.2689 30.2866 23.2689 30.6771 22.8783L42.6979 10.8575C42.9839 10.5715 43.0695 10.1414 42.9147 9.76773ZM39.5766 11.1504L29.97 20.757L27.1416 17.9286L33.9197 11.1504L39.5766 11.1504Z" fill="white"/>
    <path fill-rule="evenodd" clip-rule="evenodd" d="M42.2078 38.1105C42.053 38.4842 41.6884 38.7278 41.2839 38.7278L32.7987 38.7278C32.5335 38.7278 32.2791 38.6225 32.0916 38.4349L23.6063 29.9496L22.1422 31.4137C22.8546 34.0808 22.1656 37.0472 20.0707 39.142C16.9466 42.2662 11.8812 42.2662 8.75704 39.142C5.63284 36.0178 5.63285 30.9525 8.75704 27.8283C10.8519 25.7335 13.8183 25.0445 16.4854 25.7568L17.9494 24.2928L15.7783 22.1216C13.1112 22.834 10.1448 22.145 8.04993 20.0501C4.92574 16.926 4.92574 11.8606 8.04993 8.73644C11.1741 5.61225 16.2394 5.61225 19.3636 8.73644C21.4585 10.8313 22.1474 13.7977 21.4351 16.4648L41.9911 37.0207C42.2771 37.3067 42.3626 37.7368 42.2078 38.1105ZM38.8697 36.7278L19.5944 17.4525C19.3214 17.1795 19.23 16.7738 19.3594 16.4101C20.1127 14.2934 19.6408 11.842 17.9494 10.1507C15.6063 7.80751 11.8073 7.80751 9.46415 10.1507C7.121 12.4938 7.121 16.2928 9.46415 18.6359C11.1555 20.3273 13.6069 20.7992 15.7236 20.0459C16.0873 19.9165 16.493 20.008 16.766 20.2809L20.0707 23.5857C20.4613 23.9762 20.4613 24.6094 20.0707 24.9999L17.4731 27.5975C17.2001 27.8705 16.7944 27.962 16.4307 27.8326C14.314 27.0792 11.8626 27.5512 10.1713 29.2425C7.82811 31.5857 7.82811 35.3847 10.1713 37.7278C12.5144 40.071 16.3134 40.071 18.6565 37.7278C20.3479 36.0364 20.8198 33.5851 20.0665 31.4684C19.9371 31.1047 20.0286 30.6989 20.3015 30.426L22.8992 27.8283C23.2897 27.4378 23.9229 27.4378 24.3134 27.8283L33.2129 36.7278L38.8697 36.7278Z" fill="white"/>
    <path d="M12.2925 35.6067C11.121 34.4351 11.121 32.5356 12.2925 31.364C13.4641 30.1925 15.3636 30.1925 16.5352 31.364C17.7067 32.5356 17.7067 34.4351 16.5352 35.6067C15.3636 36.7782 13.4641 36.7782 12.2925 35.6067Z" fill="white"/>
    <path d="M11.5855 16.5144C10.4139 15.3428 10.4139 13.4433 11.5855 12.2717C12.7571 11.1002 14.6566 11.1002 15.8281 12.2717C16.9997 13.4433 16.9997 15.3428 15.8281 16.5144C14.6566 17.686 12.7571 17.686 11.5855 16.5144Z" fill="white"/>
    </g>
    <defs>
    <clipPath id="clip0_120_738">
    <rect width="48" height="48" fill="black"/>
    </clipPath>
    </defs>
    </svg>
    