<svg width="34" height="34" viewBox="0 0 48 48" fill="none" xmlns="http://www.w3.org/2000/svg">
    <path fill-rule="evenodd" clip-rule="evenodd" d="M10 6C7.79086 6 6 7.79086 6 10V31C6 33.2091 7.79086 35 10 35H33L39.4393 41.4393C40.3843 42.3843 42 41.715 42 40.3787V31V10C42 7.79086 40.2091 6 38 6H10ZM13 16C13 14.8954 13.8954 14 15 14H33C34.1046 14 35 14.8954 35 16C35 17.1046 34.1046 18 33 18H15C13.8954 18 13 17.1046 13 16ZM15 23C13.8954 23 13 23.8954 13 25C13 26.1046 13.8954 27 15 27H27C28.1046 27 29 26.1046 29 25C29 23.8954 28.1046 23 27 23H15Z" fill="white"/>
    </svg>
    