<svg width="22" height="22" viewBox="0 0 48 48" fill="none" xmlns="http://www.w3.org/2000/svg">
    <path fill-rule="evenodd" clip-rule="evenodd" d="M24 6C14.0589 6 6 14.0589 6 24C6 33.9411 14.0589 42 24 42C33.9411 42 42 33.9411 42 24C42 14.0589 33.9411 6 24 6ZM4 24C4 12.9543 12.9543 4 24 4C35.0457 4 44 12.9543 44 24C44 35.0457 35.0457 44 24 44C12.9543 44 4 35.0457 4 24Z" fill="white"/>
    <path fill-rule="evenodd" clip-rule="evenodd" d="M35.1156 10.9953L19.5271 19.9953L13.1622 37.5265L28.9912 28.3876L35.1156 10.9953ZM25.4922 26.7728C26.9957 26.0764 27.6499 24.2932 26.9536 22.7898C26.2573 21.2863 24.474 20.632 22.9706 21.3284C21.4672 22.0247 20.8129 23.808 21.5092 25.3114C22.2055 26.8148 23.9888 27.4691 25.4922 26.7728Z" fill="white"/>
    </svg>
    