<svg width="26" height="26" viewBox="0 0 48 48" fill="none" xmlns="http://www.w3.org/2000/svg">
    <path fill-rule="evenodd" clip-rule="evenodd" d="M24 6C14.0589 6 6 14.0589 6 24C6 33.9411 14.0589 42 24 42C33.9411 42 42 33.9411 42 24C42 14.0589 33.9411 6 24 6ZM4 24C4 12.9543 12.9543 4 24 4C35.0457 4 44 12.9543 44 24C44 35.0457 35.0457 44 24 44C12.9543 44 4 35.0457 4 24Z" fill="white"/>
    <path d="M26 34C26 35.1046 25.1046 36 24 36C22.8954 36 22 35.1046 22 34C22 32.8954 22.8954 32 24 32C25.1046 32 26 32.8954 26 34Z" fill="white"/>
    <path fill-rule="evenodd" clip-rule="evenodd" d="M24 16.5C22.3431 16.5 21 17.8431 21 19.5V20H17V19.5C17 15.634 20.134 12.5 24 12.5C27.866 12.5 31 15.634 31 19.5V19.9853C31 21.4856 30.404 22.9244 29.3431 23.9853L26 27.3284V28.5H22V26.5C22 25.9696 22.2107 25.4609 22.5858 25.0858L26.5147 21.1569C26.8254 20.8461 27 20.4247 27 19.9853V19.5C27 17.8431 25.6569 16.5 24 16.5Z" fill="white"/>
    </svg>
    