<svg width="48" height="48" viewBox="0 0 48 48" fill="none" xmlns="http://www.w3.org/2000/svg">
    <path fill-rule="evenodd" clip-rule="evenodd" d="M4 19H15V43H4V19ZM6 21V41H13V21H6Z" fill="white"/>
    <path fill-rule="evenodd" clip-rule="evenodd" d="M32.2007 8.76922C32.9559 6.75529 30.4347 5.13185 28.9138 6.65277L15 20.5666V41.0003H33.4172C35.672 41.0003 37.6478 39.4912 38.241 37.3159L41.6573 24.7897C42.1778 22.8813 40.7411 21.0003 38.763 21.0003H29.057C28.729 21.0003 28.4219 20.8395 28.2351 20.5699C28.0483 20.3003 28.0055 19.9563 28.1207 19.6492L32.2007 8.76922ZM13.6883 19.0499L27.4996 5.23855C30.5414 2.19675 35.5838 5.44359 34.0733 9.47147L30.5 19.0003H38.763C42.0599 19.0003 44.4543 22.1352 43.5868 25.3159L40.1706 37.8422C39.34 40.8876 36.5739 43.0003 33.4172 43.0003H14C13.4477 43.0003 13 42.5526 13 42.0003V20.0003C13 19.5569 13.2886 19.1809 13.6883 19.0499Z" fill="white"/>
    </svg>
    