<svg width="26" height="26" viewBox="0 0 48 48" fill="none" xmlns="http://www.w3.org/2000/svg">
    <path fill-rule="evenodd" clip-rule="evenodd" d="M26 9C22.134 9 19 12.134 19 16C19 19.866 22.134 23 26 23C29.866 23 33 19.866 33 16C33 12.134 29.866 9 26 9ZM17 16C17 11.0294 21.0294 7 26 7C30.9706 7 35 11.0294 35 16C35 20.9706 30.9706 25 26 25C21.0294 25 17 20.9706 17 16Z" fill="currentColor" stroke-width='1'/>
    <path fill-rule="evenodd" clip-rule="evenodd" d="M13.9792 27.9792C17.1673 24.7911 21.4913 23 26 23C30.5087 23 34.8327 24.7911 38.0208 27.9792C41.2089 31.1673 43 35.4913 43 40V41L9 41L9 40C9 35.4913 10.7911 31.1673 13.9792 27.9792ZM26 25C22.0218 25 18.2064 26.5804 15.3934 29.3934C12.817 31.9698 11.2746 35.3869 11.0333 39L40.9667 39C40.7254 35.387 39.183 31.9698 36.6066 29.3934C33.7936 26.5804 29.9782 25 26 25Z" fill="currentColor" stroke-width='1'/>
    <path d="M4 22H14V24H4V22Z" fill="currentColor" stroke-width='1'/>
    <path d="M10 18L10 28L8 28L8 18L10 18Z" fill="currentColor" stroke-width='1'/>
    </svg>
    