<svg width="26" height="26" viewBox="0 0 48 48" fill="none" xmlns="http://www.w3.org/2000/svg">
    <path fill-rule="evenodd" clip-rule="evenodd" d="M16.3725 5.83752C16.748 5.31193 17.3541 5 18 5H30C30.6459 5 31.252 5.31193 31.6275 5.83752L35.315 11H40C42.2091 11 44 12.7909 44 15V39C44 41.2091 42.2091 43 40 43H8C5.79086 43 4 41.2091 4 39V15C4 12.7909 5.79086 11 8 11H12.685L16.3725 5.83752ZM19.0292 9L15.3418 14.1625C14.9663 14.6881 14.3602 15 13.7143 15L8 15V39H40V15H34.2857C33.6398 15 33.0337 14.6881 32.6582 14.1625L28.9708 9H19.0292Z" fill="white"/>
    <path fill-rule="evenodd" clip-rule="evenodd" d="M24 21C21.7909 21 20 22.7909 20 25C20 27.2091 21.7909 29 24 29C26.2091 29 28 27.2091 28 25C28 22.7909 26.2091 21 24 21ZM16 25C16 20.5817 19.5817 17 24 17C28.4183 17 32 20.5817 32 25C32 29.4183 28.4183 33 24 33C19.5817 33 16 29.4183 16 25Z" fill="white"/>
    </svg>
    