<svg width="24" height="26" viewBox="0 0 24 26" fill="none" xmlns="http://www.w3.org/2000/svg">
    <path fill-rule="evenodd" clip-rule="evenodd" d="M2 4.3335H22V21.6668H14V20.5835H21V5.41683H3V8.66683H2V4.3335Z" fill="currentColor" stroke-width='1'/>
    <path fill-rule="evenodd" clip-rule="evenodd" d="M2 10.8335C3.31322 10.8335 4.61358 11.1137 5.82683 11.6581C7.04009 12.2026 8.14248 13.0005 9.07107 14.0065C9.99965 15.0125 10.7362 16.2067 11.2388 17.5211C11.7413 18.8355 12 20.2442 12 21.6668H10C10 20.5287 9.79307 19.4017 9.39104 18.3502C8.989 17.2988 8.39972 16.3433 7.65685 15.5386C6.91399 14.7338 6.03207 14.0954 5.06147 13.6599C4.09086 13.2243 3.05057 13.0002 2 13.0002V10.8335Z" fill="currentColor" stroke-width='1'/>
    <path fill-rule="evenodd" clip-rule="evenodd" d="M2 14.625C2.85359 14.625 3.69883 14.8071 4.48744 15.161C5.27606 15.5149 5.99261 16.0336 6.59619 16.6875C7.19978 17.3413 7.67856 18.1176 8.00522 18.9719C8.33187 19.8263 8.5 20.7419 8.5 21.6667H6.5C6.5 21.0265 6.3836 20.3925 6.15746 19.8011C5.93131 19.2096 5.59984 18.6722 5.18198 18.2195C4.76412 17.7668 4.26804 17.4077 3.72208 17.1628C3.17611 16.9178 2.59095 16.7917 2 16.7917L2 14.625Z" fill="currentColor" stroke-width='1'/>
    <path d="M5 21.6665C5 21.2397 4.9224 20.8171 4.77164 20.4228C4.62087 20.0285 4.3999 19.6702 4.12132 19.3684C3.84274 19.0666 3.51203 18.8272 3.14805 18.6639C2.78407 18.5006 2.39397 18.4165 2 18.4165L2 21.6665H5Z" fill="currentColor" stroke-width='1'/>
    </svg>
    