<svg width="48" height="48" viewBox="0 0 48 48" fill="none" xmlns="http://www.w3.org/2000/svg">
    <path fill-rule="evenodd" clip-rule="evenodd" d="M43.7658 28.041L32.7658 28.041L32.7658 4.04101L43.7658 4.04102L43.7658 28.041ZM41.7658 26.041L41.7658 6.04102L34.7658 6.04101L34.7658 26.041L41.7658 26.041Z" fill="black"/>
    <path fill-rule="evenodd" clip-rule="evenodd" d="M15.5651 38.272C14.8099 40.286 17.3311 41.9094 18.852 40.3885L32.7658 26.4747L32.7658 6.04094L14.3486 6.04093C12.0938 6.04093 10.118 7.55004 9.52477 9.72534L6.10852 22.2516C5.58804 24.16 7.02469 26.0409 9.00281 26.0409L18.7088 26.0409C19.0368 26.0409 19.3439 26.2018 19.5307 26.4713C19.7175 26.7409 19.7603 27.085 19.6451 27.3921L15.5651 38.272ZM34.0775 27.9914L20.2662 41.8027C17.2244 44.8445 12.182 41.5977 13.6925 37.5698L17.2658 28.0409L9.00281 28.0409C5.70594 28.0409 3.31153 24.906 4.17899 21.7253L7.59524 9.19911C8.42581 6.15368 11.1919 4.04093 14.3486 4.04093L33.7658 4.04094C34.3181 4.04094 34.7658 4.48865 34.7658 5.04094L34.7658 27.0409C34.7658 27.4844 34.4772 27.8604 34.0775 27.9914Z" fill="black"/>
    </svg>
    