<svg width="48" height="48" viewBox="0 0 48 48" fill="none" xmlns="http://www.w3.org/2000/svg">
    <path d="M37 5H41C42.6569 5 44 6.34315 44 8V26C44 27.6569 42.6569 29 41 29H37V5Z" fill="white"/>
    <path d="M11 5C9.89543 5 9 5.89543 9 7V25C9 27.7614 11.2386 30 14 30H22.2L20.5298 35.5674C19.8955 37.6816 20.4733 39.9733 22.0341 41.5341L23.6446 43.1446C24.0885 43.5885 24.8268 43.5184 25.1792 42.999L33.3099 31.017C33.7596 30.3543 34 29.5719 34 28.771V7C34 5.89543 33.1046 5 32 5H11Z" fill="white"/>
    <path d="M5 17C5 14.2386 7.23858 12 10 12H17C19.7614 12 22 14.2386 22 17C22 19.7614 19.7614 22 17 22H10C7.23858 22 5 19.7614 5 17Z" fill="white"/>
    <path d="M4 25C4 22.2386 6.23858 20 9 20H18C20.7614 20 23 22.2386 23 25C23 27.7614 20.7614 30 18 30H9C6.23858 30 4 27.7614 4 25Z" fill="white"/>
    </svg>
    