<svg width="48" height="48" viewBox="0 0 48 48" fill="none" xmlns="http://www.w3.org/2000/svg">
    <path d="M11 19H7C5.34315 19 4 20.3431 4 22V40C4 41.6569 5.34315 43 7 43H11V19Z" fill="white"/>
    <path d="M27 23C27 20.2386 29.2386 18 32 18H39C41.7614 18 44 20.2386 44 23C44 25.7614 41.7614 28 39 28H32C29.2386 28 27 25.7614 27 23Z" fill="white"/>
    <path d="M26 31C26 28.2386 28.2386 26 31 26H38C40.7614 26 43 28.2386 43 31C43 33.7614 40.7614 36 38 36H31C28.2386 36 26 33.7614 26 31Z" fill="white"/>
    <path d="M14.0001 19.2291C14.0001 18.4282 14.2405 17.6458 14.6902 16.9831L22.8208 5.00104C23.1733 4.48163 23.9116 4.41158 24.3554 4.85544L25.966 6.46598C27.5268 8.02677 28.1045 10.3185 27.4703 12.4327L25.8001 18.0001H34C36.7614 18.0001 39 20.2387 39 23.0001V41.0001C39 42.1046 38.1046 43.0001 37 43.0001H16C14.8954 43.0001 14 42.1046 14 41.0001L14.0001 19.2291Z" fill="white"/>
    </svg>
    