<svg width="25" height="25" viewBox="0 0 48 48" fill="none" xmlns="http://www.w3.org/2000/svg">
    <path d="M28 24C28 26.2091 26.2091 28 24 28C21.7909 28 20 26.2091 20 24C20 21.7909 21.7909 20 24 20C26.2091 20 28 21.7909 28 24Z" fill="white"/>
    <path fill-rule="evenodd" clip-rule="evenodd" d="M33.2388 20.1731C32.7362 18.9598 31.9996 17.8574 31.0711 16.9289L32.4853 15.5146C33.5996 16.629 34.4835 17.9518 35.0865 19.4077C35.6896 20.8636 36 22.4241 36 23.9999C36 25.5758 35.6896 27.1362 35.0865 28.5921C34.4835 30.048 33.5996 31.3709 32.4853 32.4852L31.0711 31.071C31.9996 30.1424 32.7362 29.04 33.2388 27.8268C33.7413 26.6135 34 25.3131 34 23.9999C34 22.6867 33.7413 21.3864 33.2388 20.1731Z" fill="white"/>
    <path fill-rule="evenodd" clip-rule="evenodd" d="M16.9289 16.9289C16.0003 17.8574 15.2638 18.9598 14.7612 20.1731C14.2587 21.3864 14 22.6867 14 23.9999C14 25.3131 14.2587 26.6135 14.7612 27.8268C15.2638 29.04 16.0003 30.1424 16.9289 31.071L15.5147 32.4852C14.4004 31.3709 13.5165 30.048 12.9134 28.5921C12.3104 27.1362 12 25.5758 12 23.9999C12 22.4241 12.3104 20.8636 12.9134 19.4077C13.5165 17.9518 14.4004 16.629 15.5147 15.5146L16.9289 16.9289Z" fill="white"/>
    <path fill-rule="evenodd" clip-rule="evenodd" d="M40.6298 17.1117C39.7252 14.9279 38.3994 12.9436 36.7279 11.2721L38.1421 9.85791C39.9993 11.7151 41.4725 13.9199 42.4776 16.3464C43.4827 18.7729 44 21.3736 44 24C44 26.6265 43.4827 29.2272 42.4776 31.6537C41.4725 34.0802 39.9993 36.285 38.1421 38.1422L36.7279 36.728C38.3994 35.0565 39.7252 33.0722 40.6298 30.8883C41.5344 28.7045 42 26.3638 42 24C42 21.6363 41.5344 19.2956 40.6298 17.1117Z" fill="white"/>
    <path fill-rule="evenodd" clip-rule="evenodd" d="M11.2721 11.2721C9.60063 12.9436 8.27475 14.9279 7.37017 17.1117C6.46558 19.2956 6 21.6363 6 24C6 26.3638 6.46558 28.7045 7.37017 30.8883C8.27475 33.0722 9.60062 35.0565 11.2721 36.728L9.85786 38.1422C8.00069 36.285 6.5275 34.0802 5.52241 31.6537C4.51732 29.2272 4 26.6265 4 24C4 21.3736 4.51732 18.7729 5.52241 16.3464C6.5275 13.9199 8.00069 11.7151 9.85787 9.85791L11.2721 11.2721Z" fill="white"/>
    </svg>
    