<svg width="18" height="18" viewBox="0 0 18 18" fill="none" xmlns="http://www.w3.org/2000/svg">
    <path fill-rule="evenodd" clip-rule="evenodd" d="M13.5 11.0493V7.875C13.5 5.38972 11.4853 3.375 9 3.375C8.09652 3.375 7.25523 3.64126 6.55031 4.09958L7.09497 4.64424C7.65328 4.31432 8.30453 4.125 9 4.125C11.0711 4.125 12.75 5.80393 12.75 7.875V10.2993L13.5 11.0493ZM5.76917 5.97009C5.4393 6.52837 5.25 7.17958 5.25 7.875V11.7803L3.75 13.2803V13.5H13.2991L14.0491 14.25H3V12.9697L4.5 11.4697V7.875C4.5 6.97157 4.76623 6.13032 5.22451 5.42543L5.76917 5.97009Z" fill="black"/>
    <path fill-rule="evenodd" clip-rule="evenodd" d="M15.1099 15.6402L2.35986 2.89019L2.89019 2.35986L15.6402 15.1099L15.1099 15.6402Z" fill="black"/>
    <path d="M7.5 3C7.5 2.17157 8.17157 1.5 9 1.5C9.82843 1.5 10.5 2.17157 10.5 3V3.75H7.5V3Z" fill="black"/>
    <path d="M10.5 15C10.5 15.197 10.4612 15.392 10.3858 15.574C10.3104 15.756 10.1999 15.9214 10.0607 16.0607C9.92137 16.1999 9.75601 16.3104 9.57403 16.3858C9.39204 16.4612 9.19698 16.5 9 16.5C8.80302 16.5 8.60796 16.4612 8.42597 16.3858C8.24399 16.3104 8.07863 16.1999 7.93934 16.0607C7.80005 15.9214 7.68956 15.756 7.61418 15.574C7.5388 15.392 7.5 15.197 7.5 15L9 15H10.5Z" fill="black"/>
    </svg>
    