<svg width="48" height="48" viewBox="0 0 48 48" fill="none" xmlns="http://www.w3.org/2000/svg">
    <path fill-rule="evenodd" clip-rule="evenodd" d="M28.6623 5.53731C29.0596 5.39478 29.5036 5.51704 29.7719 5.84286L43.7719 22.8429C44.076 23.2121 44.076 23.745 43.7719 24.1143L29.7719 41.1143C29.5036 41.4401 29.0596 41.5624 28.6623 41.4198C28.265 41.2773 28 40.9007 28 40.4786V30.3626C26.7035 30.1246 25.3667 30.0001 24 30.0001C16.592 30.0001 10.0389 33.6605 6.0507 39.2759C5.78335 39.6523 5.29304 39.7968 4.8643 39.6254C4.43556 39.4541 4.17987 39.0115 4.2456 38.5545C5.91724 26.9317 15.9147 18.0001 28 18.0001C28 18.0001 28 18.0001 28 18.0001V6.47857C28 6.05648 28.265 5.67985 28.6623 5.53731ZM30 9.26591V19.0214C30 19.294 29.8887 19.5548 29.6918 19.7435C29.495 19.9321 29.2296 20.0321 28.9573 20.0205C28.6399 20.0069 28.3208 20.0001 28 20.0001C18.3403 20.0001 10.1336 26.2263 7.17592 34.8844C11.5062 30.6276 17.4462 28.0001 24 28.0001C25.7904 28.0001 27.5361 28.1963 29.2164 28.5688C29.6742 28.6702 30 29.0762 30 29.5451V37.6912L41.7045 23.4786L30 9.26591Z" fill="black"/>
    </svg>
    