<svg width="22" height="22" viewBox="0 0 22 22" fill="none" xmlns="http://www.w3.org/2000/svg">
    <path d="M10 0.57735C10.6188 0.220085 11.3812 0.220085 12 0.57735L19.5263 4.92265C20.1451 5.27992 20.5263 5.94017 20.5263 6.6547V15.3453C20.5263 16.0598 20.1451 16.7201 19.5263 17.0774L12 21.4226C11.3812 21.7799 10.6188 21.7799 10 21.4226L2.47372 17.0774C1.85492 16.7201 1.47372 16.0598 1.47372 15.3453V6.6547C1.47372 5.94017 1.85492 5.27992 2.47372 4.92265L10 0.57735Z" fill="#EA3323"/>
    <path fill-rule="evenodd" clip-rule="evenodd" d="M10.8331 4.37815C10.9363 4.31861 11.0633 4.31861 11.1665 4.37815L16.6513 7.54482C16.7544 7.60437 16.818 7.71441 16.818 7.8335V14.1668C16.818 14.2859 16.7544 14.396 16.6513 14.4555L11.1665 17.6222C11.0633 17.6817 10.9363 17.6817 10.8331 17.6222L5.34831 14.4555C5.24517 14.396 5.18164 14.2859 5.18164 14.1668V7.8335C5.18164 7.71441 5.24517 7.60437 5.34831 7.54482L10.8331 4.37815ZM5.84831 8.02595V13.9744L10.9998 16.9486L16.1513 13.9744V8.02595L10.9998 5.05173L5.84831 8.02595Z" fill="white"/>
    <path d="M14.3335 11L9.3335 13.8868L9.3335 8.11328L14.3335 11Z" fill="white"/>
    </svg>
    